{"title":"Phineas.and.Ferb.The.Movie.2011.DVDRip+Bonus.XVID.AC3.HQ.Hive-CM","uid":6641419,"size":1847737659,"categoryP":"video","categoryS":"movies","magnet":"?xt=urn:btih:dd7502e42c3c68bda8e22c541a55e393c9789b3f&amp;dn=Phineas.and.Ferb.The.Movie.2011.DVDRip%2BBonus.XVID.AC3.HQ.Hive-CM&amp;tr=udp%3A%2F%2Ftracker.openbittorrent.com%3A80&amp;tr=udp%3A%2F%2Fopen.demonii.com%3A1337&amp;tr=udp%3A%2F%2Ftracker.coppersurfer.tk%3A6969&amp;tr=udp%3A%2F%2Fexodus.desync.com%3A6969","seeders":1,"leechers":1,"uploader":"TvTeam","files":7,"time":1314762752,"description":". \n  &lt;a href=&quot;\nhttp://www.torrenting.com/&quot; rel=&quot;nofollow&quot; target=&quot;_NEW&quot;&gt;\nhttp://www.torrenting.com/&lt;/a&gt;        :     Greatest Movie Tracker on The Net!!!\n &lt;a href=&quot;\nhttp://www.Torrenting.com&quot; rel=&quot;nofollow&quot; target=&quot;_NEW&quot;&gt;\nhttp://www.Torrenting.com&lt;/a&gt;          :     Once &amp; For all ;)\n\n\n               www . Torrenting . Com \n\n(((((((((((((= Enjoy No RAR releases =))))))))))))))))))))\n\n\n...................................NFO:....................................\n\n.[img]http://img849.imageshack.us/img849/1722/phineasferbthemovieacro.jpg[/img]\n\n\n[color=blue][size=4][b]Phineas.and.Ferb.The.Movie.2011.DVDRip+Bonus.XVID.AC3.HQ.Hive-CM8[/b][/size][/color]\n\n\n[b]Thx Hive\n\nCM8 Doing It Right The First Time :D\n\n\nSource: DVD-9\n\n\nEncode:\nhere is nice HQ Version of the newest Disney Movie.\nDVD contained 2 bonus movies, which are here included as seperate files.\nIf you want you can select or deselect them, whatever you need.\nall for the kids :P\nenjoy\n\n\nVideo: 720x400 @bitrate 2200 2pass\nBonusVideos: 720x400 @bitrate 1800 2pass\nAudio: English AC3 5.1 @384\nSample: yes included[/b]\n\n\n[url]http://www.imdb.com/title/tt1825918/[/url]\n\n\nGeneral\nComplete name                    : Phineas.and.Ferb.The.Movie.2011.DVDRip+Bonus.XVID.AC3.HQ.Hive-CM8.avi\nFormat                           : AVI\nFormat/Info                      : Audio Video Interleave\nFile size                        : 1.32 GiB\nDuration                         : 1h 16mn\nOverall bit rate                 : 2 464 Kbps\nWriting application              : Nandub v1.0rc2\nWriting library                  : Nandub build 1853/release\n\nVideo\nID                               : 0\nFormat                           : MPEG-4 Visual\nFormat profile                   : Advanced Simple@L5\nFormat settings, BVOP            : 1\nFormat settings, QPel            : Yes\nFormat settings, GMC             : No warppoints\nFormat settings, Matrix          : Default (H.263)\nMuxing mode                      : Packed bitstream\nCodec ID                         : XVID\nCodec ID/Hint                    : XviD\nDuration                         : 1h 16mn\nBit rate                         : 2 071 Kbps\nWidth                            : 720 pixels\nHeight                           : 400 pixels\nDisplay aspect ratio             : 16:9\nFrame rate                       : 23.976 fps\nColor space                      : YUV\nChroma subsampling               : 4:2:0\nBit depth                        : 8 bits\nScan type                        : Progressive\nCompression mode                 : Lossy\nBits/(Pixel*Frame)               : 0.300\nStream size                      : 1.11 GiB (84%)\nWriting library                  : XviD 1.2.1 (UTC 2008-12-04)\n\nAudio\nID                               : 1\nFormat                           : AC-3\nFormat/Info                      : Audio Coding 3\nMode extension                   : CM (complete main)\nCodec ID                         : 2000\nDuration                         : 1h 16mn\nBit rate mode                    : Constant\nBit rate                         : 384 Kbps\nChannel(s)                       : 6 channels\nChannel positions                : Front: L C R, Side: L R, LFE\nSampling rate                    : 48.0 KHz\nBit depth                        : 16 bits\nCompression mode                 : Lossy\nStream size                      : 211 MiB (16%)\nAlignment                        : Split accross interleaves\nInterleave, duration             : 42 ms (1.00 video frame)\nInterleave, preload duration     : 500 ms\n\n\nPlot:\nWhen Phineas, Ferb, and Perry follow Dr. Doofenshmirtz through his &quot;Otherdimensionator&quot;,\nthey find themselves in an alternate universe where a second, truly evil Dr. Doof rules\nover his Tristate Area with an army of iron-fisted robots.\n\n\nCast:\nDee Bradley Baker        ...    Perry the Platypus / Platyborg (voice)\nThomas Brodie-Sangster   ...    Ferb Fletcher / Alternate Ferb (voice)\nBobby Gaylor             ...    Buford Van Stomm (voice)\nKelly Hu                 ...    Stacy Hirano (voice)\n\n\n[img]http://img263.imageshack.us/img263/7724/65718932.png[/img]\n[img]http://img153.imageshack.us/img153/1097/phph.png[/img]\n[img]http://img691.imageshack.us/img691/1620/phphph.png[/img]\n[img]http://img707.imageshack.us/img707/774/phphphph.png[/img]\n[img]http://img12.imageshack.us/img12/9628/phphhphphhphh.png[/img]\n[img]http://img703.imageshack.us/img703/5508/phphphphhphh.png[/img]\n[img]http://img153.imageshack.us/img153/8035/phphphphph.png[/img]\n[img]http://img27.imageshack.us/img27/4973/phphphphphh.png[/img]\n\n\n\nGreetz\n\nViSiON,SiC,SANTi,3LT0N,YanKeeS,MAGNET,THC,T0XiC,LKRG,FANTASIA-PLAY,FANTASIA-M,BHRG,FLAWL3SS,\nD2U,WBZ,NOVA,Vik,Rapeseed,SAFC,goldadvance,MEMORY100,scumbag,KaN1vE,Unevano,Pinnz,Wayne\nMr Hive,cedrict wink,and all P2P groups\nGreat Work Guys :D\n\nFYS\n\nLOOKING FOR ANYTHING YOU WANT TO LOOK AND SOUND BETTER\n\n&lt;a class=&quot;__cf_email__&quot; href=&quot;/cdn-cgi/l/email-protection&quot; data-cfemail=&quot;4407097c042c31372c29252d286a272b29&quot;&gt;[email&amp;#160;protected]&lt;/a&gt;&lt;script cf-hash='f9e31' type=&quot;text/javascript&quot;&gt;\n/* &lt;![CDATA[ */!function(){try{var t=&quot;currentScript&quot;in document?document.currentScript:function(){for(var t=document.getElementsByTagName(&quot;script&quot;),e=t.length;e--;)if(t[e].getAttribute(&quot;cf-hash&quot;))return t[e]}();if(t&amp;&amp;t.previousSibling){var e,r,n,i,c=t.previousSibling,a=c.getAttribute(&quot;data-cfemail&quot;);if(a){for(e=&quot;&quot;,r=parseInt(a.substr(0,2),16),n=2;a.length-n;n+=2)i=parseInt(a.substr(n,2),16)^r,e+=String.fromCharCode(i);e=document.createTextNode(e),c.parentNode.replaceChild(e,c)}}}catch(u){}}();/* ]]&gt; */&lt;/script&gt;","torrent":{"xt":"urn:btih:dd7502e42c3c68bda8e22c541a55e393c9789b3f","amp;dn":"Phineas.and.Ferb.The.Movie.2011.DVDRip%2BBonus.XVID.AC3.HQ.Hive-CM","amp;tr":["udp%3A%2F%2Ftracker.openbittorrent.com%3A80","udp%3A%2F%2Fopen.demonii.com%3A1337","udp%3A%2F%2Ftracker.coppersurfer.tk%3A6969","udp%3A%2F%2Fexodus.desync.com%3A6969"],"infoHash":"dd7502e42c3c68bda8e22c541a55e393c9789b3f","infoHashBuffer":{"type":"Buffer","data":[221,117,2,228,44,60,104,189,168,226,44,84,26,85,227,147,201,120,155,63]},"announce":[],"urlList":[]}}